# xmcd
#
# Track frame offsets: 
#        150
#        18088
#        34635
#        59931
#        83132
#        100863
#        117033
#        140438
#        149429
#        169189
#        190278
#        212960
#
# Disc length: 3043 seconds
#
# Revision: 0
# Processed by: cddbd v1.5.2PL0 Copyright (c) Steve Scherf et al.
# Submitted via: ExactAudioCopy v0.99pb4
#
DISCID=ab0be10c
DTITLE=Bukka Allen - Sweet Valentine
DYEAR=1998
DGENRE=Country
TTITLE0=Where We Belong
TTITLE1=Diamonds and Gold
TTITLE2=Falling
TTITLE3=Flying Away
TTITLE4=On The Edge
TTITLE5=Didn't Mean A Thing
TTITLE6=Where Are You Now
TTITLE7=Another Place
TTITLE8=Looking For You
TTITLE9=Bust Out The Seams
TTITLE10=Land Of Dreams
TTITLE11=Sweet Valentine
EXTD=
EXTT0=
EXTT1=
EXTT2=
EXTT3=
EXTT4=
EXTT5=
EXTT6=
EXTT7=
EXTT8=
EXTT9=
EXTT10=
EXTT11=
PLAYORDER=
